<?xml version="1.0" encoding="UTF-8" standalone="no"?>
<!-- Created with Inkscape (http://www.inkscape.org/) -->

<svg
   xmlns:dc="http://purl.org/dc/elements/1.1/"
   xmlns:cc="http://creativecommons.org/ns#"
   xmlns:rdf="http://www.w3.org/1999/02/22-rdf-syntax-ns#"
   xmlns:svg="http://www.w3.org/2000/svg"
   xmlns="http://www.w3.org/2000/svg"
   xmlns:sodipodi="http://sodipodi.sourceforge.net/DTD/sodipodi-0.dtd"
   xmlns:inkscape="http://www.inkscape.org/namespaces/inkscape"
   width="10mm"
   height="10mm"
   viewBox="0 0 10 10"
   version="1.1"
   id="svg872"
   inkscape:version="0.92.4 (5da689c313, 2019-01-14)"
   sodipodi:docname="logo2.svg">
  <defs
     id="defs866" />
  <sodipodi:namedview
     id="base"
     pagecolor="#ffffff"
     bordercolor="#666666"
     borderopacity="1.0"
     inkscape:pageopacity="0.0"
     inkscape:pageshadow="2"
     inkscape:zoom="3.959798"
     inkscape:cx="61.836624"
     inkscape:cy="25.122232"
     inkscape:document-units="px"
     inkscape:current-layer="layer1"
     showgrid="false"
     inkscape:window-width="1600"
     inkscape:window-height="837"
     inkscape:window-x="-8"
     inkscape:window-y="-8"
     inkscape:window-maximized="1"
     inkscape:pagecheckerboard="true" />
  <metadata
     id="metadata869">
    <rdf:RDF>
      <cc:Work
         rdf:about="">
        <dc:format>image/svg+xml</dc:format>
        <dc:type
           rdf:resource="http://purl.org/dc/dcmitype/StillImage" />
        <dc:title></dc:title>
      </cc:Work>
    </rdf:RDF>
  </metadata>
  <g
     inkscape:label="Capa 1"
     inkscape:groupmode="layer"
     id="layer1"
     transform="translate(0,-287)">
    <path
       style="color:#000000;font-style:normal;font-variant:normal;font-weight:normal;font-stretch:normal;font-size:medium;line-height:normal;font-family:sans-serif;font-variant-ligatures:normal;font-variant-position:normal;font-variant-caps:normal;font-variant-numeric:normal;font-variant-alternates:normal;font-feature-settings:normal;text-indent:0;text-align:start;text-decoration:none;text-decoration-line:none;text-decoration-style:solid;text-decoration-color:#000000;letter-spacing:normal;word-spacing:normal;text-transform:none;writing-mode:lr-tb;direction:ltr;text-orientation:mixed;dominant-baseline:auto;baseline-shift:baseline;text-anchor:start;white-space:normal;shape-padding:0;clip-rule:nonzero;display:inline;overflow:visible;visibility:visible;opacity:1;isolation:auto;mix-blend-mode:normal;color-interpolation:sRGB;color-interpolation-filters:linearRGB;solid-color:#000000;solid-opacity:1;vector-effect:none;fill:#ffffff;fill-opacity:1;fill-rule:nonzero;stroke:none;stroke-width:0.49143332;stroke-linecap:butt;stroke-linejoin:miter;stroke-miterlimit:4;stroke-dasharray:none;stroke-dashoffset:0;stroke-opacity:1;color-rendering:auto;image-rendering:auto;shape-rendering:auto;text-rendering:auto;enable-background:accumulate"
       d="m 5.0820595,288.12585 -5.966e-4,5e-5 c -1.1812939,3.7e-4 -2.3525087,0.21921 -3.4543353,0.64501 l -0.384316,0.14872 0.032682,0.41057 c 0.036752,0.46445 0.1071992,0.92263 0.209339,1.3715 H 1.9894639 C 1.878695,290.24112 1.8031817,289.76978 1.7653433,289.29142 v -3.7e-4 l -0.00345,-0.0455 0.042568,-0.0163 c 1.0454176,-0.40399 2.1562986,-0.61142 3.2770066,-0.61174 h 2.787e-4 c 1.1196307,0.003 2.2291818,0.21328 3.2726393,0.61933 l 0.04257,0.0167 -0.0038,0.0455 c -0.03808,0.47578 -0.113399,0.94456 -0.22364,1.40271 h 0.504726 c 0.101581,-0.44624 0.171802,-0.90168 0.208763,-1.36335 v -2.8e-4 l 0.03297,-0.40999 -0.383164,-0.14902 C 7.4330535,288.35117 6.2636352,288.12946 5.083484,288.12593 h -5.967e-4 z m -2.5450876,5.25416 c 0.5651403,0.97605 1.3032559,1.85435 2.1899017,2.58699 l 0.3522578,0.29073 0.3522583,-0.29073 c 0.8868116,-0.73259 1.6251179,-1.61088 2.1904292,-2.58699 H 7.0486565 c -0.5149645,0.82765 -1.164339,1.57502 -1.9304599,2.2079 l -0.039067,0.0324 -0.039067,-0.0324 h -2.782e-4 c -0.7659496,-0.63293 -1.4150773,-1.3803 -1.9298402,-2.2079 z"
       id="path4562"
       inkscape:connector-curvature="0" />
    <path
       inkscape:connector-curvature="0"
       style="color:#000000;font-style:normal;font-variant:normal;font-weight:normal;font-stretch:normal;font-size:medium;line-height:normal;font-family:sans-serif;font-variant-ligatures:normal;font-variant-position:normal;font-variant-caps:normal;font-variant-numeric:normal;font-variant-alternates:normal;font-feature-settings:normal;text-indent:0;text-align:start;text-decoration:none;text-decoration-line:none;text-decoration-style:solid;text-decoration-color:#000000;letter-spacing:normal;word-spacing:normal;text-transform:none;writing-mode:lr-tb;direction:ltr;text-orientation:mixed;dominant-baseline:auto;baseline-shift:baseline;text-anchor:start;white-space:normal;shape-padding:0;clip-rule:nonzero;display:inline;overflow:visible;visibility:visible;opacity:1;isolation:auto;mix-blend-mode:normal;color-interpolation:sRGB;color-interpolation-filters:linearRGB;solid-color:#000000;solid-opacity:1;vector-effect:none;fill:#ffffff;fill-opacity:1;fill-rule:nonzero;stroke:none;stroke-width:0.61429173;stroke-linecap:butt;stroke-linejoin:miter;stroke-miterlimit:4;stroke-dasharray:none;stroke-dashoffset:0;stroke-opacity:1;color-rendering:auto;image-rendering:auto;shape-rendering:auto;text-rendering:auto;enable-background:accumulate"
       d="m 5.0809876,288.9861 c -0.9958752,3.7e-4 -1.9787185,0.18904 -2.915966,0.52225 0.028011,0.25973 0.067754,0.51695 0.1184432,0.77112 l 2.7640248,-0.36186 0.031917,-0.004 2.7966583,0.36613 c 0.05027,-0.25191 0.08973,-0.50684 0.117724,-0.76422 -0.9355576,-0.3351 -1.916973,-0.52618 -2.9118871,-0.52925 z m -0.00157,0.24639 0.074723,0.15136 0.1670104,0.0242 -0.1208425,0.11782 0.028506,0.16638 -0.1493973,-0.0786 -0.1493978,0.0786 0.028555,-0.16638 -0.1208907,-0.11782 0.1670587,-0.0242 z m -0.9275805,0.20161 0.044345,0.0898 0.099103,0.0144 -0.0717,0.0699 0.01694,0.0987 -0.088688,-0.0466 -0.088641,0.0466 0.01694,-0.0987 -0.071747,-0.0699 0.099102,-0.0144 z m 1.855161,0 0.044345,0.0898 0.099103,0.0144 -0.0717,0.0699 0.01694,0.0987 -0.088688,-0.0466 -0.088641,0.0466 0.01694,-0.0987 -0.071747,-0.0699 0.099102,-0.0144 z m 0.1176269,4.59735 -1.0452074,0.13683 -1.0447278,-0.13678 c 0.3140209,0.39143 0.6629155,0.75766 1.0448716,1.09334 0.3820244,-0.33567 0.7309825,-0.70193 1.0450636,-1.09339 z"
       id="path4518" />
    <text
       xml:space="preserve"
       style="font-style:normal;font-variant:normal;font-weight:normal;font-stretch:normal;font-size:2.11947513px;line-height:1.25;font-family:SimSun-ExtB;-inkscape-font-specification:'SimSun-ExtB, Normal';font-variant-ligatures:normal;font-variant-caps:normal;font-variant-numeric:normal;font-feature-settings:normal;text-align:start;letter-spacing:0px;word-spacing:0px;writing-mode:lr-tb;text-anchor:start;opacity:1;fill:#ffffff;fill-opacity:1;stroke:none;stroke-width:0.05298688;"
       x="0.34784913"
       y="292.7984"
       id="text4568"><tspan
         sodipodi:role="line"
         id="tspan4566"
         x="0.34784913"
         y="292.7984"
         style="font-style:normal;font-variant:normal;font-weight:normal;font-stretch:normal;font-size:2.11947513px;font-family:SimSun-ExtB;-inkscape-font-specification:'SimSun-ExtB, Normal';font-variant-ligatures:normal;font-variant-caps:normal;font-variant-numeric:normal;font-feature-settings:normal;text-align:start;writing-mode:lr-tb;text-anchor:start;fill:#ffffff;stroke-width:0.05298688;">CAR-SALES</tspan></text>
    <path
       style="opacity:1;fill:#ffffff;stroke:none;stroke-width:0.30175987;stroke-miterlimit:4;stroke-dasharray:none"
       d="m 5.0794113,290.16124 4.1279166,0.54046 H 0.95149543 Z"
       id="rect4576"
       inkscape:connector-curvature="0"
       sodipodi:nodetypes="cccc" />
    <path
       sodipodi:nodetypes="cccc"
       inkscape:connector-curvature="0"
       id="path4579"
       d="m 5.0794119,293.92047 4.127916,-0.54046 H 0.95149573 Z"
       style="opacity:1;fill:#ffffff;stroke:none;stroke-width:0.30175987;stroke-miterlimit:4;stroke-dasharray:none" />
  </g>
</svg>
