<?xml version="1.0" encoding="UTF-8" standalone="no"?>
<!-- Created with Inkscape (http://www.inkscape.org/) -->

<svg
   xmlns:dc="http://purl.org/dc/elements/1.1/"
   xmlns:cc="http://creativecommons.org/ns#"
   xmlns:rdf="http://www.w3.org/1999/02/22-rdf-syntax-ns#"
   xmlns:svg="http://www.w3.org/2000/svg"
   xmlns="http://www.w3.org/2000/svg"
   xmlns:sodipodi="http://sodipodi.sourceforge.net/DTD/sodipodi-0.dtd"
   xmlns:inkscape="http://www.inkscape.org/namespaces/inkscape"
   width="210mm"
   height="297mm"
   viewBox="0 0 130.62728 184.74428"
   version="1.1"
   id="svg8"
   inkscape:version="0.92.4 (5da689c313, 2019-01-14)"
   sodipodi:docname="logo.svg">
  <defs
     id="defs2" />
  <sodipodi:namedview
     id="base"
     pagecolor="#ffffff"
     bordercolor="#666666"
     borderopacity="1.0"
     inkscape:pageopacity="0.0"
     inkscape:pageshadow="2"
     inkscape:zoom="1"
     inkscape:cx="336.7751"
     inkscape:cy="613.34644"
     inkscape:document-units="px"
     inkscape:current-layer="layer1"
     showgrid="false"
     scale-x="0.16458"
     inkscape:window-width="1600"
     inkscape:window-height="837"
     inkscape:window-x="-8"
     inkscape:window-y="-8"
     inkscape:window-maximized="1" />
  <metadata
     id="metadata5">
    <rdf:RDF>
      <cc:Work
         rdf:about="">
        <dc:format>image/svg+xml</dc:format>
        <dc:type
           rdf:resource="http://purl.org/dc/dcmitype/StillImage" />
        <dc:title></dc:title>
      </cc:Work>
    </rdf:RDF>
  </metadata>
  <g
     inkscape:label="Capa 1"
     inkscape:groupmode="layer"
     id="layer1">
    <path
       style="color:#000000;font-style:normal;font-variant:normal;font-weight:normal;font-stretch:normal;font-size:medium;line-height:normal;font-family:sans-serif;font-variant-ligatures:normal;font-variant-position:normal;font-variant-caps:normal;font-variant-numeric:normal;font-variant-alternates:normal;font-feature-settings:normal;text-indent:0;text-align:start;text-decoration:none;text-decoration-line:none;text-decoration-style:solid;text-decoration-color:#000000;letter-spacing:normal;word-spacing:normal;text-transform:none;writing-mode:lr-tb;direction:ltr;text-orientation:mixed;dominant-baseline:auto;baseline-shift:baseline;text-anchor:start;white-space:normal;shape-padding:0;clip-rule:nonzero;display:inline;overflow:visible;visibility:visible;opacity:1;isolation:auto;mix-blend-mode:normal;color-interpolation:sRGB;color-interpolation-filters:linearRGB;solid-color:#000000;solid-opacity:1;vector-effect:none;fill:#000000;fill-opacity:1;fill-rule:nonzero;stroke:none;stroke-width:3.29159999;stroke-linecap:butt;stroke-linejoin:miter;stroke-miterlimit:4;stroke-dasharray:none;stroke-dashoffset:0;stroke-opacity:1;color-rendering:auto;image-rendering:auto;shape-rendering:auto;text-rendering:auto;enable-background:accumulate"
       d="m 65.612879,43.925181 -0.0039,3.21e-4 c -7.912255,0.0023 -15.757003,1.468262 -23.136991,4.320225 l -2.574133,0.99616 0.218905,2.749964 c 0.246165,3.110892 0.718016,6.179745 1.402144,9.186264 h 3.379997 c -0.741925,-3.084991 -1.24771,-6.241953 -1.50115,-9.445993 v -0.0022 l -0.02314,-0.30473 0.285121,-0.109291 c 7.002163,-2.705953 14.442794,-4.095321 21.94925,-4.097464 h 0.0019 c 7.499239,0.02241 14.930964,1.428517 21.919998,4.148252 l 0.285122,0.111543 -0.02539,0.304729 c -0.255038,3.18672 -0.759542,6.326543 -1.497936,9.395204 h 3.380641 c 0.680377,-2.988861 1.150713,-6.039353 1.398286,-9.131619 v -0.0019 l 0.220834,-2.746106 -2.56642,-0.998089 c -7.36618,-2.866603 -15.198894,-4.351648 -23.103496,-4.37527 h -0.0039 z M 48.565992,79.117335 c 3.785285,6.537557 8.729153,12.420354 14.667869,17.327509 l 2.359409,1.947316 2.359409,-1.947316 C 73.892507,91.53801 78.837655,85.655235 82.624086,79.117335 h -3.839021 c -3.449208,5.543558 -7.798692,10.549376 -12.930139,14.788412 l -0.261656,0.216976 -0.261655,-0.216976 h -0.0019 c -5.130272,-4.239342 -9.4781,-9.245173 -12.92596,-14.788412 z"
       id="path4562"
       inkscape:connector-curvature="0" />
    <path
       style="color:#000000;font-style:normal;font-variant:normal;font-weight:normal;font-stretch:normal;font-size:medium;line-height:normal;font-family:sans-serif;font-variant-ligatures:normal;font-variant-position:normal;font-variant-caps:normal;font-variant-numeric:normal;font-variant-alternates:normal;font-feature-settings:normal;text-indent:0;text-align:start;text-decoration:none;text-decoration-line:none;text-decoration-style:solid;text-decoration-color:#000000;letter-spacing:normal;word-spacing:normal;text-transform:none;writing-mode:lr-tb;direction:ltr;text-orientation:mixed;dominant-baseline:auto;baseline-shift:baseline;text-anchor:start;white-space:normal;shape-padding:0;clip-rule:nonzero;display:inline;overflow:visible;visibility:visible;opacity:1;isolation:auto;mix-blend-mode:normal;color-interpolation:sRGB;color-interpolation-filters:linearRGB;solid-color:#000000;solid-opacity:1;vector-effect:none;fill:#000000;fill-opacity:1;fill-rule:nonzero;stroke:none;stroke-width:25;stroke-linecap:butt;stroke-linejoin:miter;stroke-miterlimit:4;stroke-dasharray:none;stroke-dashoffset:0;stroke-opacity:1;color-rendering:auto;image-rendering:auto;shape-rendering:auto;text-rendering:auto;enable-background:accumulate"
       d="M 398.625 301.90234 C 358.09558 301.91814 318.09654 309.5957 279.95312 323.15625 C 281.09311 333.72668 282.71051 344.19505 284.77344 354.53906 L 397.26172 339.8125 L 398.56055 339.64258 L 512.37695 354.54297 C 514.42285 344.29127 516.0288 333.91644 517.16797 323.44141 C 479.09333 309.80354 439.15241 302.0274 398.66211 301.90234 L 398.625 301.90234 z M 398.56055 311.92969 L 401.60156 318.08984 L 408.39844 319.07617 L 403.48047 323.87109 L 404.64062 330.64258 L 398.56055 327.44531 L 392.48047 330.64258 L 393.64258 323.87109 L 388.72266 319.07617 L 395.52148 318.08984 L 398.56055 311.92969 z M 360.81055 320.13477 L 362.61523 323.79102 L 366.64844 324.37695 L 363.73047 327.22266 L 364.41992 331.24023 L 360.81055 329.34375 L 357.20312 331.24023 L 357.89258 327.22266 L 354.97266 324.37695 L 359.00586 323.79102 L 360.81055 320.13477 z M 436.31055 320.13477 L 438.11523 323.79102 L 442.14844 324.37695 L 439.23047 327.22266 L 439.91992 331.24023 L 436.31055 329.34375 L 432.70312 331.24023 L 433.39258 327.22266 L 430.47266 324.37695 L 434.50586 323.79102 L 436.31055 320.13477 z M 441.09766 507.23438 L 398.56055 512.80273 L 356.04297 507.23633 C 368.82277 523.16678 383.02184 538.07106 398.56641 551.73242 C 414.11375 538.07141 428.3154 523.16573 441.09766 507.23438 z "
       transform="scale(0.16458)"
       id="path4518" />
    <text
       xml:space="preserve"
       style="font-style:normal;font-variant:normal;font-weight:normal;font-stretch:normal;font-size:14.19615459px;line-height:1.25;font-family:SimSun-ExtB;-inkscape-font-specification:'SimSun-ExtB, Normal';font-variant-ligatures:normal;font-variant-caps:normal;font-variant-numeric:normal;font-feature-settings:normal;text-align:start;letter-spacing:0px;word-spacing:0px;writing-mode:lr-tb;text-anchor:start;opacity:1;fill:#000000;fill-opacity:1;stroke:none;stroke-width:0.35490388;"
       x="33.903339"
       y="75.221764"
       id="text4568"><tspan
         sodipodi:role="line"
         id="tspan4566"
         x="33.903339"
         y="75.221764"
         style="font-style:normal;font-variant:normal;font-weight:normal;font-stretch:normal;font-size:14.19615459px;font-family:SimSun-ExtB;-inkscape-font-specification:'SimSun-ExtB, Normal';font-variant-ligatures:normal;font-variant-caps:normal;font-variant-numeric:normal;font-feature-settings:normal;text-align:start;writing-mode:lr-tb;text-anchor:start;fill:#000000;stroke-width:0.35490388;">CAR-SALES</tspan></text>
    <path
       style="opacity:1;fill:#000000;stroke:none;stroke-width:2.02117491;stroke-miterlimit:4;stroke-dasharray:none"
       d="m 65.595145,57.558185 27.64861,3.61993 H 37.946537 Z"
       id="rect4576"
       inkscape:connector-curvature="0"
       sodipodi:nodetypes="cccc" />
    <path
       sodipodi:nodetypes="cccc"
       inkscape:connector-curvature="0"
       id="path4579"
       d="m 65.595148,82.737265 27.648605,-3.61993 H 37.946539 Z"
       style="opacity:1;fill:#000000;stroke:none;stroke-width:2.02117491;stroke-miterlimit:4;stroke-dasharray:none" />
  </g>
</svg>
